# xmcd
# Copyright (C) 1995-1998 Ti Kan
#
# Track frame offsets:
#       165
#       12971
#       36432
#       56362
#       79495
#       94610
#       127336
#       149328
#       171543
#       197484
#
# Disc length: 2873 seconds
#
# Revision: 0
# Processed by: cddbd v1.5.2PL0 Copyright (c) Steve Scherf et al.
# Submitted via: CD-Transfer v1.0
#
DISCID=8f0b370a
DTITLE=Chweger, The - The Chweger
DYEAR=12
DGENRE=
TTITLE0=Mon Garcon
TTITLE1=Maybe I
TTITLE2=Mali Èovjek
TTITLE3=Fuækam (The Whistler)
TTITLE4=Ona Spava
TTITLE5=Alone
TTITLE6=Sein
TTITLE7=Dijete
TTITLE8=Free
TTITLE9=Mir
EXTD=
EXTT0=
EXTT1=
EXTT2=
EXTT3=
EXTT4=
EXTT5=
EXTT6=
EXTT7=
EXTT8=
EXTT9=
PLAYORDER=
